HIERARCHY
ROOT Hips
{
  OFFSET 0 0 0
  CHANNELS 6 Xposition Yposition Zposition Zrotation Yrotation Xrotation
  JOINT LeftThigh
  {
    OFFSET 8.409438 0 -5.917753
    CHANNELS 3 Zrotation Yrotation Xrotation
    JOINT LeftLeg
    {
      OFFSET 0 0 -42.358652
      CHANNELS 3 Zrotation Yrotation Xrotation
      JOINT LeftFoot
      {
        OFFSET 0 0 -39.357303
        CHANNELS 3 Zrotation Yrotation Xrotation
      }
    }
  }
  JOINT RightThigh
  {
    OFFSET -8.409438 0 -5.917753
    CHANNELS 3 Zrotation Yrotation Xrotation
    JOINT RightLeg
    {
      OFFSET 0 0 -42.358652
      CHANNELS 3 Zrotation Yrotation Xrotation
      JOINT RightFoot
      {
        OFFSET 0 0 -39.357303
        CHANNELS 3 Zrotation Yrotation Xrotation
      }
    }
  }
  JOINT SpineLow
  {
    OFFSET 0 0 4.719101
    CHANNELS 3 Zrotation Yrotation Xrotation
    JOINT SpineMid
    {
      OFFSET 0 0 12.899191
      CHANNELS 3 Zrotation Yrotation Xrotation
      JOINT Chest
      {
        OFFSET 0 0 12.899191
        CHANNELS 3 Zrotation Yrotation Xrotation
        JOINT LeftShoulder
        {
          OFFSET 7.550562 1.41573 9.438202
          CHANNELS 3 Zrotation Yrotation Xrotation
          JOINT LeftArm
          {
            OFFSET 9.155056 0 4.247191
            CHANNELS 3 Zrotation Yrotation Xrotation
            JOINT LeftForearm
            {
              OFFSET 0 0 25.771955
              CHANNELS 3 Zrotation Yrotation Xrotation
              JOINT LeftHand
              {
                OFFSET 0 0 25.197169
                CHANNELS 3 Zrotation Yrotation Xrotation
              }
            }
          }
        }
        JOINT RightShoulder
        {
          OFFSET -7.550562 1.41573 9.438202
          CHANNELS 3 Zrotation Yrotation Xrotation
          JOINT RightArm
          {
            OFFSET -9.155056 0 4.247191
            CHANNELS 3 Zrotation Yrotation Xrotation
            JOINT RightForearm
            {
              OFFSET 0 0 -25.771955
              CHANNELS 3 Zrotation Yrotation Xrotation
              JOINT RightHand
              {
                OFFSET 0 0 -25.197169
                CHANNELS 3 Zrotation Yrotation Xrotation
              }
            }
          }
        }
        JOINT Neck
        {
          OFFSET 0 0 15.101124
          CHANNELS 3 Zrotation Yrotation Xrotation
          JOINT Head
          {
            OFFSET 0 0 11.325843
            CHANNELS 3 Zrotation Yrotation Xrotation
            End Site
            {
              OFFSET 0 0 14.157303
            }
          }
        }
      }
    }
  }
}
MOTION
Frames: 7
Frame Time: 0.0
0.0  93.25843  0.0  5.516991  -45.848934  -88.833311  17.813717  -8.834054  -3.63145  9.19392  -1.637935  18.876834  10.993109  3.007842  7.883919  -0.82247  1.451203  -18.880501  2.469714  10.12309  14.41376  9.441967  3.562762  0.262418  -5.960416  -1.147829  -1.569541  -16.223608  -3.499538  -3.981761  -16.223607  -3.499538  -3.981761  -10.645546  7.366672  9.780637  11.295034  56.492792  58.527604  -25.406707  -6.026989  138.295163  57.86862  -47.508813  43.967623  21.206089  5.510979  33.862583  51.796866  11.409247  40.367293  -5.345325  -2.724911  -112.995985  54.199595  24.680709  -5.320074  33.982481  4.680392  1.610896  25.460505  3.61327  0.949753  
0.0  93.25843  0.0  5.589034  -45.131206  -88.945271  17.984405  -8.751371  -3.550277  9.152508  -1.789425  18.762559  10.57213  2.932431  7.77941  -1.298131  1.551308  -18.884023  2.530926  10.317446  14.709859  9.517345  3.528413  0.250042  -5.969762  -1.12268  -1.566007  -16.250459  -3.430963  -3.977698  -16.250458  -3.430962  -3.977698  -10.644325  7.484712  9.930603  9.934365  56.284356  57.421893  -25.684934  -6.269216  138.441465  57.792461  -47.539063  43.608255  21.231143  5.445824  33.947342  51.970577  11.639088  40.107886  -5.222831  -2.848821  -112.911759  54.726224  24.589141  -5.057261  33.852864  4.726186  1.739076  25.361993  3.654431  1.044584  
0.0  93.25843  0.0  5.472115  -44.06795  -88.901908  17.714308  -8.861054  -3.514057  8.781953  -1.798539  18.602779  10.201035  2.919734  7.638456  -2.222329  1.502674  -18.923557  3.070241  10.549486  15.109448  9.429511  3.374585  0.230818  -6.03088  -1.118193  -1.572087  -16.417465  -3.423757  -3.991893  -16.417465  -3.423757  -3.991894  -10.405344  7.790079  10.183476  9.450874  56.04179  57.23901  -25.75256  -6.777328  138.361041  58.053651  -47.583029  43.185094  21.223206  5.35118  33.876807  52.360786  11.89795  40.078161  -5.1586  -2.864367  -112.838711  55.410128  24.519694  -4.634232  33.836898  4.752933  2.024902  25.347659  3.690416  1.258232  
0.0  93.25843  0.0  5.570634  -43.120899  -89.027612  17.442183  -8.879227  -3.382803  8.069031  -1.608627  18.353558  9.994068  2.913537  7.529111  -3.085156  1.602426  -18.942313  3.258532  10.692669  15.407558  9.466932  3.341719  0.241106  -6.042195  -1.087372  -1.587005  -16.448965  -3.344465  -4.039317  -16.448966  -3.344465  -4.039317  -10.500134  8.028567  10.44813  9.858179  55.991513  57.800103  -25.742757  -7.327965  138.096893  58.564968  -47.498957  42.761659  21.254943  5.253769  33.988401  52.637978  12.349219  39.923339  -5.147905  -2.741126  -112.769919  56.193197  24.412662  -4.114172  33.606564  4.847532  2.248948  25.172412  3.77305  1.423223  
0.0  93.25843  0.0  5.597074  -42.197655  -89.112858  16.907147  -9.014567  -3.353177  7.26278  -1.263337  18.119642  9.985804  2.885236  7.501624  -3.923461  1.700128  -18.956627  3.993452  10.883933  15.86753  9.346244  3.201643  0.235945  -6.035278  -1.046285  -1.599136  -16.431277  -3.235585  -4.082675  -16.431277  -3.235585  -4.082674  -9.612097  8.583051  10.817165  9.891045  55.524411  58.813694  -25.651941  -7.944308  137.767346  58.575609  -48.122583  43.393256  21.218973  5.06589  33.994047  52.984101  12.821216  39.885959  -5.175774  -2.505338  -112.712764  57.060881  24.241433  -3.478989  33.378327  4.899014  2.464821  24.999183  3.822619  1.584501  
0.0  93.25843  0.0  5.661629  -41.173067  -89.16939  16.136992  -9.122818  -3.460396  6.622148  -0.855649  18.064266  10.022143  2.865692  7.481634  -4.906179  1.776141  -18.989679  3.995394  11.092977  16.08529  9.383458  3.152331  0.216282  -6.036477  -1.009451  -1.617698  -16.435324  -3.140305  -4.142023  -16.435324  -3.140305  -4.142023  -9.613011  8.858583  11.068209  11.079854  55.698992  60.073724  -25.659621  -8.616252  137.422045  59.527937  -48.289537  42.813028  21.31865  4.969439  34.048205  53.294883  13.327413  39.773481  -5.268877  -2.198585  -112.627355  57.895202  24.022559  -2.810148  33.115079  4.981883  2.619669  24.799812  3.892135  1.698434  
0.0  93.25843  0.0  5.677997  -40.084055  -89.189696  15.237778  -9.378426  -3.715285  6.186402  -0.344357  18.203809  9.94526  2.841141  7.406575  -5.894309  1.860372  -19.002124  3.879722  11.241797  16.30308  9.336819  3.102434  0.194657  -6.039333  -0.963586  -1.627901  -16.444825  -3.018562  -4.180795  -16.444826  -3.018562  -4.180795  -8.564797  9.451824  11.352352  11.410571  55.462132  61.356088  -25.782781  -9.356463  137.113692  60.430481  -48.597801  42.060328  21.467506  4.84813  34.086594  53.590019  13.833445  39.610138  -5.478844  -1.938378  -112.603801  58.606687  23.615842  -2.253334  32.862722  5.025443  2.673288  24.60978  3.926516  1.738358  
